<?xml version="1.0" encoding="UTF-8"?>
<svg version="1.1" xmlns="http://www.w3.org/2000/svg" width="16" height="16">
<path d="M0 0 C4.05953998 0.180424 5.56501211 0.53067096 8.375 3.5625 C8.91125 4.366875 9.4475 5.17125 10 6 C9.505 6.61875 9.01 7.2375 8.5 7.875 C6.80777227 9.83880904 6.80777227 9.83880904 7 12 C4.69 12 2.38 12 0 12 C0 10.68 0 9.36 0 8 C-0.99 8 -1.98 8 -3 8 C-3.33 7.01 -3.66 6.02 -4 5 C-3.34 5 -2.68 5 -2 5 C-1.7834375 4.0409375 -1.7834375 4.0409375 -1.5625 3.0625 C-1 1 -1 1 0 0 Z " fill="#864744" transform="translate(5,2)"/>
<path d="M0 0 C4.95 0.99 4.95 0.99 10 2 C10.33 3.65 10.66 5.3 11 7 C8.69 7 6.38 7 4 7 C4 5.68 4 4.36 4 3 C3.01 3 2.02 3 1 3 C0.67 2.01 0.34 1.02 0 0 Z " fill="#086B36" transform="translate(1,7)"/>
<path d="M0 0 C2.875 0.3125 2.875 0.3125 6 1 C6.66 1.99 7.32 2.98 8 4 C6.68 4.33 5.36 4.66 4 5 C2.68 3.35 1.36 1.7 0 0 Z " fill="#010101" transform="translate(5,2)"/>
</svg>
